# xmcd
#
# Track frame offsets: 
#        150
#        17683
#        34314
#        45929
#        65552
#        82523
#        104169
#        124007
#        139854
#        159986
#        180321
#        194434
#
# Disc length: 2809 seconds
#
# Revision: 0
# Processed by: cddbd v1.5.2PL0 Copyright (c) Steve Scherf et al.
# Submitted via: ExactAudioCopy v0.95b3
#
DISCID=950af70c
DTITLE=Rani Arbo and Daisy Mayhem - Big Old Life
DYEAR=2007
DGENRE=Bluegrass
TTITLE0=Joy Comes Back
TTITLE1=Big Old Life
TTITLE2=Red Haired Boy
TTITLE3=Roses
TTITLE4=What's That
TTITLE5=Thief
TTITLE6=Heart With No Compassion
TTITLE7=Oil In My Vessel
TTITLE8=Farewell, Angelina
TTITLE9=Mother Of Our Dreams
TTITLE10=Hole In Heaven
TTITLE11=Shine On
EXTD=
EXTT0=
EXTT1=
EXTT2=
EXTT3=
EXTT4=
EXTT5=
EXTT6=
EXTT7=
EXTT8=
EXTT9=
EXTT10=
EXTT11=
PLAYORDER=
